<?xml version="1.0" encoding="iso-8859-1"?>
<!-- Generator: Adobe Illustrator 16.0.0, SVG Export Plug-In . SVG Version: 6.00 Build 0)  -->
<!DOCTYPE svg PUBLIC "-//W3C//DTD SVG 1.1//EN" "http://www.w3.org/Graphics/SVG/1.1/DTD/svg11.dtd">
<svg version="1.1" id="Capa_1" xmlns="http://www.w3.org/2000/svg" xmlns:xlink="http://www.w3.org/1999/xlink" x="0px" y="0px"
	 width="201.982px" height="201.982px" viewBox="0 0 201.982 201.982" style="enable-background:new 0 0 201.982 201.982;"
	 xml:space="preserve">
<g>
	<g>
		<path d="M53.319,174.503c4.914-3.307,8.306-9.828,8.306-15.71c0-8.3-6.716-15.016-15.016-15.016
			c-8.291,0-15.013,6.716-15.013,15.016c0,5.876,3.386,12.397,8.306,15.71c-11.761,2.989-20.478,13.201-20.478,20.776
			c0,8.938,54.385,8.938,54.385,0C73.81,187.704,65.087,177.492,53.319,174.503z"/>
		<path d="M107.705,174.503c4.907-3.307,8.306-9.828,8.306-15.71c0-8.3-6.723-15.016-15.017-15.016
			c-8.293,0-15.016,6.716-15.016,15.016c0,5.876,3.386,12.397,8.306,15.71c-11.758,2.989-20.475,13.201-20.475,20.776
			c0,8.938,54.379,8.938,54.379,0C128.177,187.704,119.463,177.492,107.705,174.503z"/>
		<path d="M162.087,174.503c4.914-3.307,8.306-9.828,8.306-15.71c0-8.3-6.723-15.016-15.01-15.016
			c-8.306,0-15.016,6.716-15.016,15.016c0,5.876,3.386,12.397,8.306,15.71c-11.765,2.989-20.484,13.201-20.484,20.776
			c0,8.938,54.383,8.938,54.383,0C182.564,187.704,173.845,177.492,162.087,174.503z"/>
		<path d="M165.503,0H36.483C25.361,0,16.319,9.036,16.319,20.152v73.996c0,11.116,9.042,20.151,20.164,20.151h17.646l0.648-8.062
			H36.483c-6.67,0-12.096-5.425-12.096-12.09V20.152c0-6.665,5.426-12.09,12.096-12.09h129.02c6.668,0,12.093,5.425,12.093,12.09
			v73.996c0,6.665-5.425,12.09-12.093,12.09H96.388l0.648,8.062h68.466c11.119,0,20.161-9.036,20.161-20.151V20.152
			C185.67,9.036,176.628,0,165.503,0z"/>
		<path d="M87.75,32.586c0-6.734-5.456-12.172-12.166-12.172c-6.719,0-12.175,5.438-12.175,12.172
			c0,6.707,5.456,14.517,12.175,14.517C82.301,47.103,87.75,39.293,87.75,32.586z"/>
		<path d="M54.248,52.494c-0.292,0.144-0.554,0.293-0.81,0.494c-0.255,0.186-0.462,0.386-0.667,0.624
			c-0.201,0.234-0.375,0.459-0.524,0.728c-0.164,0.286-0.286,0.569-0.393,0.892c-0.058,0.161-0.17,0.295-0.213,0.469l-7.693,34.65
			c-0.582,2.601,1.053,5.167,3.653,5.754c0.35,0.067,0.697,0.101,1.047,0.101c2.208,0,4.196-1.516,4.689-3.76l7.109-31.974
			c0.505-0.158,1.06-0.326,1.678-0.5v32.866l-3.836,47.627c-0.256,3.185,2.116,5.967,5.301,6.223
			c0.149,0.012,0.311,0.012,0.469,0.012c2.98,0,5.505-2.277,5.748-5.315l3.462-43.041c0.715,0.313,1.501,0.493,2.329,0.493
			c0.831,0,1.617-0.18,2.332-0.493l3.462,43.041c0.25,3.032,2.773,5.315,5.754,5.315c0.152,0,0.313,0,0.469-0.012
			c3.179-0.256,5.551-3.038,5.295-6.223l-3.83-47.627V59.972c2.445,0.691,4.092,1.285,4.141,1.304
			c0.024,0.012,0.042,0.012,0.064,0.018c0.024,0.006,0.03,0.013,0.048,0.019l23.105,7.7c0.499,0.162,1.023,0.25,1.522,0.25
			c2.01,0,3.896-1.278,4.561-3.285c0.834-2.526-0.523-5.249-3.045-6.092l-23.096-7.7c-1.047-0.374-10.394-3.635-18.992-4.061
			l-1.147,2.301h-0.031l3.243,25.24l-3.846,6.734l-3.854-6.734l3.242-25.24h-0.03l-1.142-2.301
			c-8.93,0.444-18.669,3.949-19.105,4.098C54.516,52.281,54.403,52.415,54.248,52.494z"/>
		<rect x="117.009" y="72.235" width="7.897" height="22.247"/>
		<rect x="128.871" y="62.246" width="7.891" height="32.236"/>
		<rect x="140.738" y="49.977" width="7.897" height="44.512"/>
	</g>
</g>
<g>
</g>
<g>
</g>
<g>
</g>
<g>
</g>
<g>
</g>
<g>
</g>
<g>
</g>
<g>
</g>
<g>
</g>
<g>
</g>
<g>
</g>
<g>
</g>
<g>
</g>
<g>
</g>
<g>
</g>
</svg>
